<?xml version="1.0" encoding="UTF-8"?>
<!-- Generator: Adobe Illustrator 23.1.1, SVG Export Plug-In . SVG Version: 6.00 Build 0)  -->
<svg version="1.1" id="Layer_1" xmlns="http://www.w3.org/2000/svg" xmlns:xlink="http://www.w3.org/1999/xlink" x="0px" y="0px" width="234" height="62" viewBox="0 0 234 62.1" style="enable-background:new 0 0 234 62.1;" xml:space="preserve">
<style type="text/css">
	.st0{fill:#009D4F;}
	.st1{fill:#FFFFFF;}
</style>
<title>Gjøvik vgs</title>
<g>
	<path class="st0" d="M0,0v31.5c0,20.8,24.7,30.6,24.7,30.6l0,0c0,0,24.7-9.9,24.7-30.6V0H0z"/>
	<polygon class="st1" points="32.6,19.3 35,16.9 24.7,6.7 14.4,17 16.8,19.3 24.7,11.5  "/>
	<polygon class="st1" points="8.2,15.5 3.4,20.3 3.4,25.1 8.2,20.3 19.9,32 22.3,29.6  "/>
	<path class="st1" d="M46,20.3l-4.8-4.8L19,37.7l0,0c-3.3,3.1-3.4,8.4-0.3,11.7c3.1,3.3,8.4,3.4,11.7,0.3c3.3-3.1,3.4-8.4,0.3-11.7   c-0.1-0.1-0.2-0.2-0.2-0.2l0,0l-1-1L27,39.2l1,1c0.9,0.9,1.4,2.1,1.4,3.4c0.1,2.7-2,5-4.6,5.1s-5-2-5.1-4.6c0-0.1,0-0.3,0-0.4   c0-1.3,0.5-2.6,1.5-3.5l0,0l20-19.8l0,0l4.8,4.8L46,20.3z"/>
	<path d="M81.5,20.1v5.7c-1.8,1.8-4.2,2.8-6.8,2.6c-2.3,0.1-4.5-0.8-6.2-2.4c-1.7-1.6-2.6-3.9-2.5-6.2c-0.1-2.3,0.9-4.6,2.6-6.2   c1.6-1.6,3.9-2.5,6.2-2.5c2.2-0.1,4.3,0.7,6,2.1l-1.5,2.2c-0.6-0.5-1.3-0.9-2-1.2c-0.7-0.2-1.5-0.3-2.3-0.3c-1.6,0-3.1,0.5-4.3,1.6   c-1.1,1.1-1.7,2.7-1.6,4.3c-0.1,1.6,0.5,3.2,1.7,4.3c1.1,1.1,2.5,1.7,4.1,1.6c1.4,0.1,2.8-0.3,4-1v-1.8h-1.9v-2.8H81.5z"/>
	<path d="M85.7,28.7V15.4h2.7v13.4c0.1,1.2-0.4,2.3-1.2,3.2c-0.8,0.8-1.8,1.2-2.9,1.2c-1.2,0-2.3-0.5-3.1-1.3l1.2-2   c0.4,0.5,1,0.8,1.6,0.8c0.5,0,0.9-0.2,1.2-0.5C85.6,29.8,85.8,29.2,85.7,28.7z M85.9,12.9c-0.7-0.7-0.7-1.7,0-2.4   c0.3-0.3,0.7-0.5,1.2-0.5c0.9,0,1.7,0.8,1.7,1.7c0,0.9-0.8,1.7-1.7,1.7C86.6,13.4,86.2,13.2,85.9,12.9z"/>
	<path d="M97.9,28.1c-0.5,0-1-0.1-1.6-0.2l-1.2,2.5h-2.4l1.5-3.3c-1-0.6-1.8-1.4-2.3-2.3c-0.6-1-0.8-2.1-0.8-3.2   c0-1.8,0.7-3.4,1.9-4.7c1.3-1.3,3-1.9,4.8-1.9c0.7,0,1.4,0.1,2,0.3L101,13h2.4l-1.5,3.2c0.8,0.6,1.5,1.4,2,2.3c0.5,0.9,0.7,2,0.7,3   c0,1.7-0.7,3.4-1.9,4.7C101.5,27.4,99.7,28.1,97.9,28.1z M95,18.5c-0.8,0.9-1.2,2-1.1,3.2c0,1.2,0.5,2.4,1.5,3.2l3.5-7.4   c-0.3-0.1-0.7-0.1-1-0.1C96.8,17.3,95.7,17.8,95,18.5z M97.9,25.7c1.1,0,2.1-0.4,2.9-1.2c0.8-0.8,1.2-1.9,1.1-3   c0-1.1-0.4-2.2-1.2-3l-3.3,7.2H97.9z"/>
	<path d="M110.7,28.1l-5.1-12.7h2.8l3.9,9.6l3.9-9.6h2.8l-5.1,12.7H110.7z"/>
	<path d="M121.5,12.9c-0.7-0.7-0.6-1.7,0-2.4c0.7-0.7,1.7-0.6,2.4,0c0.7,0.7,0.6,1.7,0,2.4c-0.3,0.3-0.7,0.5-1.2,0.5   C122.3,13.4,121.8,13.2,121.5,12.9z M124,28.1h-2.7V15.4h2.7V28.1z"/>
	<path d="M130.4,28.1h-2.7V10.4h2.7v10.4l5.2-5.4h3.5l-4.8,5l5.2,7.7h-3.2l-3.8-5.6l-1.9,2L130.4,28.1z"/>
	<path d="M74.3,39.5v0.1l-3.5,8.9h-1.4l0,0l-3.6-9h1.4v0l2.9,7.5l2.9-7.6L74.3,39.5z"/>
	<path d="M76.7,37.7c-0.2-0.2-0.3-0.4-0.2-0.6c0-0.2,0.1-0.5,0.2-0.6c0.2-0.2,0.4-0.3,0.6-0.2c0.2,0,0.5,0.1,0.6,0.2   c0.2,0.2,0.2,0.4,0.2,0.6c0,0.2-0.1,0.5-0.2,0.6c-0.2,0.2-0.4,0.3-0.6,0.3C77.1,38,76.9,37.9,76.7,37.7z M76.7,48.6v-9H78v9H76.7z"/>
	<path d="M89.5,35.8v12.7h-1.3v-1.8c-0.3,0.5-0.8,1-1.3,1.3c-0.7,0.4-1.4,0.6-2.2,0.6c-0.8,0-1.6-0.2-2.3-0.6   c-0.7-0.4-1.2-1-1.6-1.6c-0.4-0.7-0.6-1.6-0.6-2.4c0-0.8,0.2-1.6,0.6-2.4c0.4-0.7,0.9-1.2,1.6-1.6c0.7-0.4,1.5-0.6,2.2-0.6   c0.8,0,1.5,0.2,2.2,0.6c0.5,0.3,1,0.8,1.3,1.3v-5.5H89.5z M88.2,44.1c0-0.6-0.1-1.2-0.4-1.8c-0.3-0.5-0.7-0.9-1.2-1.2   c-0.5-0.3-1.1-0.5-1.7-0.5c-1.2,0-2.3,0.6-2.9,1.7c-0.6,1.1-0.6,2.4,0,3.6c0.3,0.5,0.7,0.9,1.2,1.2c0.5,0.3,1.1,0.5,1.7,0.4   c0.6,0,1.2-0.1,1.7-0.4c0.5-0.3,0.9-0.7,1.2-1.2C88.1,45.3,88.3,44.7,88.2,44.1z"/>
	<path d="M100.6,44.5h-7.4c0.1,0.8,0.4,1.6,1,2.2c0.6,0.6,1.4,0.9,2.2,0.8c0.5,0,1.1-0.1,1.6-0.3c0.5-0.2,0.9-0.5,1.2-0.8l0.1-0.1   l0.8,0.8l-0.1,0.1c-0.4,0.5-1,0.8-1.6,1.1c-0.6,0.3-1.3,0.4-2,0.4c-0.8,0-1.6-0.2-2.3-0.6c-0.7-0.4-1.2-0.9-1.6-1.6   c-0.4-0.7-0.6-1.5-0.6-2.3c0-0.8,0.2-1.6,0.6-2.3c0.4-0.7,0.9-1.2,1.6-1.6c0.7-0.4,1.5-0.6,2.3-0.6c1.2-0.1,2.4,0.4,3.2,1.3   C100.3,41.9,100.7,43.2,100.6,44.5L100.6,44.5z M93.2,43.5h6.2c0-0.8-0.4-1.5-0.9-2.1c-0.6-0.5-1.3-0.8-2.1-0.8   c-0.8,0-1.6,0.3-2.2,0.8C93.6,42,93.3,42.7,93.2,43.5z"/>
	<path d="M107.5,39.5v1.2h-0.1c-0.8,0-1.6,0.3-2.2,0.8c-0.6,0.6-1,1.4-1,2.2v4.8H103v-9h1.3v1.8c0.3-0.5,0.7-1,1.1-1.3   C106,39.7,106.7,39.5,107.5,39.5L107.5,39.5z"/>
	<path d="M117.1,44.5h-7.4c0.1,0.8,0.4,1.6,1,2.2c0.6,0.6,1.4,0.9,2.2,0.8c0.5,0,1.1-0.1,1.6-0.3c0.5-0.2,0.9-0.5,1.2-0.8l0.1-0.1   l0.8,0.8l-0.1,0.1c-0.4,0.5-1,0.8-1.6,1.1c-0.6,0.3-1.3,0.4-2,0.4c-0.8,0-1.6-0.2-2.3-0.6c-0.7-0.4-1.2-0.9-1.6-1.6   c-0.4-0.7-0.6-1.5-0.6-2.3c0-0.8,0.2-1.6,0.6-2.3c0.4-0.7,0.9-1.2,1.6-1.6c0.7-0.4,1.5-0.6,2.3-0.6c1.2-0.1,2.4,0.4,3.2,1.3   C116.9,41.9,117.2,43.2,117.1,44.5L117.1,44.5z M109.7,43.5h6.2c0-0.8-0.4-1.5-0.9-2.1c-0.6-0.5-1.3-0.8-2.1-0.8   c-0.8,0-1.6,0.3-2.2,0.8C110.1,42,109.8,42.7,109.7,43.5z"/>
	<path d="M128,39.5v8c0,0.8-0.2,1.6-0.6,2.3c-0.4,0.6-0.9,1.2-1.6,1.5c-0.7,0.4-1.5,0.5-2.4,0.5c-1.4,0-2.7-0.5-3.7-1.4h-0.1l0.6-1   l0.1,0.1c0.4,0.4,0.9,0.7,1.4,0.9c0.5,0.2,1,0.3,1.6,0.3c0.9,0,1.7-0.3,2.4-0.9c0.6-0.6,0.9-1.5,0.9-2.3v-1.1   c-0.3,0.5-0.7,0.9-1.2,1.2c-0.6,0.4-1.4,0.6-2.1,0.5c-0.8,0-1.5-0.2-2.1-0.6c-0.6-0.4-1.1-0.9-1.5-1.6c-0.4-0.7-0.5-1.5-0.5-2.2   c0-0.8,0.2-1.5,0.5-2.2c0.3-0.6,0.9-1.2,1.5-1.5c0.7-0.4,1.4-0.6,2.2-0.5c0.7,0,1.4,0.2,2.1,0.5c0.5,0.3,0.9,0.7,1.2,1.2v-1.7H128z    M126.7,43.9c0-0.6-0.1-1.2-0.4-1.7c-0.2-0.5-0.6-0.9-1.1-1.2c-1-0.6-2.2-0.6-3.2,0c-0.5,0.3-0.9,0.7-1.1,1.2   c-0.3,0.5-0.4,1.1-0.4,1.7c0,0.6,0.1,1.2,0.4,1.7c0.9,1.5,2.8,2,4.3,1.2c0.5-0.3,0.9-0.7,1.1-1.2C126.6,45,126.7,44.5,126.7,43.9   L126.7,43.9z"/>
	<path d="M138.3,48.7H137v-1.3c-0.3,0.4-0.8,0.8-1.3,1c-0.6,0.3-1.3,0.4-2,0.4c-0.6,0-1.1-0.1-1.6-0.3c-0.9-0.4-1.5-1.4-1.5-2.4   c0-0.7,0.3-1.4,0.9-1.9c0.7-0.5,1.6-0.7,2.5-0.7h2.9v-0.6c0-0.6-0.2-1.2-0.6-1.6c-0.5-0.4-1.1-0.6-1.8-0.6c-1,0-2,0.4-2.8,1.1h-0.1   l-0.6-0.9h0.1c0.5-0.4,1.1-0.7,1.7-0.9c0.6-0.2,1.2-0.3,1.9-0.3c0.9-0.1,1.8,0.2,2.5,0.8c0.6,0.6,1,1.4,0.9,2.3L138.3,48.7z    M137,44.5h-2.8c-0.6,0-1.2,0.1-1.7,0.4c-0.4,0.2-0.6,0.7-0.6,1.1c0,0.5,0.2,0.9,0.6,1.2c0.4,0.3,1,0.5,1.5,0.5   c0.7,0,1.4-0.2,2-0.5c0.5-0.4,0.9-0.9,1.1-1.5L137,44.5z M133.4,38.3c-0.3-0.3-0.5-0.8-0.5-1.2c0-1,0.8-1.7,1.8-1.8   c0.5,0,0.9,0.2,1.2,0.5c0.3,0.3,0.5,0.8,0.5,1.2c0,0.5-0.2,0.9-0.5,1.2C135.2,39,134.1,39,133.4,38.3z M133.7,37.1   c0,0.2,0.1,0.5,0.3,0.6c0.2,0.2,0.4,0.3,0.7,0.3c0.3,0,0.5-0.1,0.7-0.3c0.2-0.2,0.3-0.4,0.3-0.6c0-0.3-0.1-0.5-0.3-0.7   c-0.2-0.2-0.4-0.3-0.7-0.3c-0.3,0-0.5,0.1-0.7,0.3C133.8,36.6,133.7,36.9,133.7,37.1L133.7,37.1z"/>
	<path d="M149.4,44.5h-7.4c0.1,0.8,0.4,1.6,1,2.2c0.6,0.6,1.4,0.9,2.2,0.8c0.5,0,1.1-0.1,1.5-0.3c0.5-0.2,0.9-0.5,1.2-0.8l0.1-0.1   l0.8,0.8v0.1c-0.4,0.5-1,0.8-1.6,1.1c-0.6,0.3-1.3,0.4-2,0.4c-0.8,0-1.6-0.2-2.3-0.6c-0.7-0.4-1.2-0.9-1.6-1.6   c-0.4-0.7-0.6-1.5-0.6-2.3c0-0.8,0.2-1.6,0.6-2.3c0.4-0.7,0.9-1.2,1.6-1.6c0.7-0.4,1.5-0.6,2.3-0.6c1.2-0.1,2.4,0.4,3.2,1.3   C149.3,41.9,149.6,43.2,149.4,44.5L149.4,44.5z M142.1,43.5h6.2c0-0.8-0.4-1.5-0.9-2.1c-0.6-0.5-1.3-0.8-2.1-0.8   c-0.8,0-1.6,0.3-2.2,0.8C142.5,42,142.1,42.7,142.1,43.5L142.1,43.5z"/>
	<path d="M160.1,43v5.5h-1.3v-5.2c0-0.7-0.2-1.4-0.7-1.9c-0.5-0.5-1.2-0.7-1.9-0.7c-0.8,0-1.6,0.3-2.1,0.8c-0.6,0.6-0.9,1.4-0.9,2.2   v4.8h-1.3v-9h1.3v1.8c0.3-0.5,0.7-1,1.2-1.3c0.7-0.4,1.4-0.6,2.2-0.5c0.9,0,1.9,0.3,2.6,0.9C159.8,41.2,160.1,42.1,160.1,43z"/>
	<path d="M171.6,35.8v12.7h-1.3v-1.8c-0.3,0.5-0.8,1-1.3,1.3c-0.7,0.4-1.4,0.6-2.2,0.6c-0.8,0-1.6-0.2-2.3-0.6   c-0.7-0.4-1.2-1-1.6-1.6c-0.4-0.7-0.6-1.5-0.6-2.4c0-0.8,0.2-1.6,0.6-2.4c0.4-0.7,0.9-1.2,1.6-1.6c0.7-0.4,1.5-0.6,2.2-0.6   c0.8,0,1.5,0.2,2.2,0.5c0.5,0.3,1,0.8,1.3,1.3v-5.5H171.6z M170.3,44.1c0-0.6-0.1-1.2-0.4-1.8c-0.3-0.5-0.7-0.9-1.2-1.2   c-1-0.6-2.3-0.6-3.4,0c-0.5,0.3-0.9,0.7-1.2,1.2c-0.3,0.5-0.4,1.2-0.4,1.8c0,0.6,0.1,1.2,0.4,1.8c0.3,0.5,0.7,0.9,1.2,1.2   c1.5,0.9,3.5,0.5,4.5-1.1c0,0,0.1-0.1,0.1-0.1C170.1,45.3,170.3,44.7,170.3,44.1L170.3,44.1z"/>
	<path d="M182.6,44.5h-7.4c0.1,0.8,0.4,1.6,1,2.2c0.6,0.6,1.4,0.9,2.3,0.8c0.5,0,1.1-0.1,1.5-0.3c0.5-0.2,0.9-0.5,1.2-0.8v-0.1   l0.8,0.8l-0.1,0.1c-0.4,0.5-1,0.8-1.6,1.1c-0.6,0.3-1.3,0.4-2,0.4c-0.8,0-1.6-0.2-2.3-0.6c-0.7-0.4-1.2-0.9-1.6-1.6   c-0.4-0.7-0.6-1.5-0.6-2.3c0-0.8,0.2-1.6,0.6-2.3c0.4-0.7,0.9-1.2,1.6-1.6c0.7-0.4,1.5-0.6,2.3-0.6c1.2-0.1,2.4,0.4,3.2,1.3   c0.8,1,1.1,2.3,1,3.6L182.6,44.5z M175.2,43.5h6.2c0-0.8-0.4-1.5-0.9-2.1c-0.6-0.5-1.3-0.8-2.1-0.8c-0.8,0-1.6,0.3-2.2,0.8   C175.7,42,175.3,42.7,175.2,43.5L175.2,43.5z"/>
	<path d="M197.6,46c0,0.8-0.4,1.5-1,1.9c-0.7,0.5-1.5,0.7-2.3,0.7c-0.6,0-1.3-0.1-1.9-0.3c-0.6-0.2-1.1-0.5-1.5-0.9l0,0l0.5-1   l0.1,0.1c0.4,0.4,0.8,0.6,1.3,0.8c0.5,0.2,1,0.3,1.6,0.3c0.5,0,1-0.1,1.4-0.4c0.6-0.4,0.7-1.2,0.3-1.7c0,0,0,0,0-0.1   c-0.2-0.2-0.4-0.4-0.7-0.5c-0.3-0.1-0.7-0.2-1.2-0.4c-0.5-0.1-1-0.3-1.5-0.5c-0.4-0.2-0.7-0.4-1-0.8c-0.3-0.4-0.4-0.8-0.4-1.3   c0-0.7,0.3-1.4,0.9-1.8c0.7-0.4,1.4-0.6,2.2-0.6c0.5,0,1,0.1,1.5,0.2c0.5,0.1,0.9,0.3,1.3,0.6h0.1l-0.5,1h-0.1   c-0.3-0.2-0.7-0.4-1.1-0.5l0,0c-0.4-0.1-0.8-0.2-1.2-0.2c-0.5,0-0.9,0.1-1.3,0.3c-0.3,0.2-0.5,0.6-0.5,0.9c0,0.3,0.1,0.5,0.3,0.7   c0.2,0.2,0.4,0.3,0.7,0.5c0.4,0.2,0.8,0.3,1.1,0.4c0.5,0.1,1,0.3,1.5,0.5c0.4,0.2,0.7,0.4,1,0.8C197.5,45.1,197.6,45.6,197.6,46z"/>
	<path d="M207.9,48.6h-1.6l0,0l-3.1-4.6l-1.9,2v2.6h-1.3V35.8h1.3v8.4l4.7-4.7h1.6l-3.4,3.5L207.9,48.6z"/>
	<path d="M218.4,44c0,0.8-0.2,1.6-0.6,2.4c-0.4,0.7-0.9,1.2-1.6,1.6c-1.5,0.8-3.2,0.8-4.7,0c-0.7-0.4-1.2-0.9-1.6-1.6   c-0.4-0.7-0.6-1.5-0.6-2.4c0-0.8,0.2-1.6,0.6-2.3c0.4-0.7,0.9-1.2,1.6-1.6c1.5-0.8,3.2-0.8,4.7,0c0.7,0.4,1.2,0.9,1.6,1.6   C218.2,42.4,218.4,43.2,218.4,44z M217.1,44c0-0.6-0.1-1.2-0.4-1.8c-0.3-0.5-0.7-0.9-1.2-1.2c-1.1-0.6-2.3-0.6-3.4,0   c-0.5,0.3-0.9,0.7-1.2,1.3c-0.3,0.6-0.4,1.2-0.4,1.8c0,0.6,0.1,1.2,0.4,1.8c0.3,0.5,0.7,0.9,1.2,1.2c0.5,0.3,1.1,0.4,1.7,0.4   c0.6,0,1.2-0.1,1.7-0.4c0.5-0.3,0.9-0.7,1.1-1.2C217,45.3,217.1,44.7,217.1,44L217.1,44z"/>
	<path d="M224.3,48L224.3,48c-0.4,0.3-1,0.5-1.5,0.6c-0.5,0-1-0.2-1.3-0.6c-0.4-0.4-0.5-1-0.5-1.6V35.8h1.3v10.5c0,0.7,0.3,1,0.8,1   c0.3,0,0.5-0.1,0.8-0.3L224.3,48z"/>
	<path d="M234,44.5h-7.4c0.1,0.8,0.4,1.6,1,2.2c0.6,0.6,1.4,0.9,2.2,0.8c0.5,0,1.1-0.1,1.5-0.3c0.5-0.2,0.9-0.5,1.2-0.8l0.1-0.1   l0.8,0.8l-0.1,0.1c-0.4,0.5-1,0.8-1.6,1.1c-0.6,0.3-1.3,0.4-2,0.4c-0.8,0-1.6-0.2-2.3-0.6c-0.7-0.4-1.2-0.9-1.6-1.6   c-0.4-0.7-0.6-1.5-0.6-2.3c0-0.8,0.2-1.6,0.6-2.3c0.4-0.7,0.9-1.2,1.6-1.6c0.7-0.4,1.5-0.6,2.3-0.6c1.2-0.1,2.4,0.4,3.2,1.3   C233.8,41.9,234.1,43.2,234,44.5L234,44.5z M226.6,43.5h6.2c0-0.8-0.4-1.5-0.9-2.1c-0.6-0.5-1.4-0.8-2.1-0.8   c-0.8,0-1.6,0.3-2.2,0.8C227,42,226.7,42.7,226.6,43.5L226.6,43.5z"/>
</g>
</svg>